<svg width="137" height="192" viewBox="0 0 137 192" fill="none" xmlns="http://www.w3.org/2000/svg">
<path d="M93 144V112H45V144H93ZM93 96V64H45V96H93ZM29 160V144H13V112H29V96H13V64H29V48H109V64H125V96H109V112H125V144H109V160H29Z" fill="url(#paint0_linear_30_6)"/>
<g filter="url(#filter0_d_30_6)">
<path d="M83 144V112H35V144H83ZM83 96V64H35V96H83ZM19 160V144H3V112H19V96H3V64H19V48H99V64H115V96H99V112H115V144H99V160H19Z" fill="url(#paint1_linear_30_6)" fill-opacity="0.4" shape-rendering="crispEdges"/>
</g>
<defs>
<filter id="filter0_d_30_6" x="0" y="48" width="115" height="115" filterUnits="userSpaceOnUse" color-interpolation-filters="sRGB">
<feFlood flood-opacity="0" result="BackgroundImageFix"/>
<feColorMatrix in="SourceAlpha" type="matrix" values="0 0 0 0 0 0 0 0 0 0 0 0 0 0 0 0 0 0 127 0" result="hardAlpha"/>
<feOffset dx="-3" dy="3"/>
<feComposite in2="hardAlpha" operator="out"/>
<feColorMatrix type="matrix" values="0 0 0 0 1 0 0 0 0 1 0 0 0 0 1 0 0 0 1 0"/>
<feBlend mode="normal" in2="BackgroundImageFix" result="effect1_dropShadow_30_6"/>
<feBlend mode="normal" in="SourceGraphic" in2="effect1_dropShadow_30_6" result="shape"/>
</filter>
<linearGradient id="paint0_linear_30_6" x1="13" y1="96" x2="137" y2="96" gradientUnits="userSpaceOnUse">
<stop stop-color="#0022FF"/>
<stop offset="1" stop-color="#9900FF"/>
</linearGradient>
<linearGradient id="paint1_linear_30_6" x1="3" y1="87.8089" x2="133.799" y2="87.9376" gradientUnits="userSpaceOnUse">
<stop stop-color="white"/>
<stop offset="1" stop-color="#ABABAB"/>
</linearGradient>
</defs>
</svg>
