<svg width="88" height="88" viewBox="0 0 88 88" fill="none" xmlns="http://www.w3.org/2000/svg">
<path d="M25 18.75V25H18.75V18.75H25ZM25 25V31.25H31.25V25H25ZM31.25 31.25V37.5H37.5V31.25H31.25ZM37.5 37.5V50H50V37.5H37.5ZM56.25 56.25V50H50V56.25H56.25ZM62.5 62.5V56.25H56.25V62.5H62.5ZM68.75 68.75V62.5H62.5V68.75H68.75ZM62.5 25H68.75V18.75H62.5V25ZM56.25 31.25H62.5V25H56.25V31.25ZM50 37.5H56.25V31.25H50V37.5ZM31.25 56.25H37.5V50H31.25V56.25ZM25 62.5H31.25V56.25H25V62.5ZM18.75 68.75H25V62.5H18.75V68.75ZM0 12.5V75H6.25V12.5H0ZM6.25 75V81.25H12.5V75H6.25ZM75 81.25H81.25V75H75V81.25ZM12.5 6.25H6.25V12.5H12.5V6.25ZM81.25 12.5V6.25H75V12.5H81.25ZM81.25 12.5V75H87.5V12.5H81.25ZM12.5 87.5H75V81.25H12.5V87.5ZM75 0H12.5V6.25H75V0Z" fill="white"/>
</svg>
